<svg xmlns="http://www.w3.org/2000/svg" viewBox="0 0 1200 675" role="img" aria-labelledby="title desc">
  <title id="title">Atlas Pantry preview</title>
  <desc id="desc">A recipe and pantry planning dashboard with stock cards and a shopping list.</desc>
  <rect width="1200" height="675" fill="#ecf5f1"/>
  <rect x="92" y="82" width="1016" height="511" rx="18" fill="#ffffff" stroke="#c5d8d0" stroke-width="3"/>
  <rect x="92" y="82" width="1016" height="74" rx="18" fill="#386f64"/>
  <text x="136" y="130" fill="#ffffff" font-family="monospace" font-size="34" font-weight="700">Atlas Pantry</text>
  <rect x="136" y="204" width="276" height="148" rx="12" fill="#e4f0eb" stroke="#bad0c8" stroke-width="3"/>
  <text x="164" y="250" fill="#274b44" font-family="monospace" font-size="25" font-weight="700">Staples</text>
  <rect x="164" y="278" width="190" height="14" rx="7" fill="#386f64"/>
  <rect x="164" y="309" width="132" height="14" rx="7" fill="#8bb7aa"/>
  <rect x="462" y="204" width="276" height="148" rx="12" fill="#f8fbf9" stroke="#bad0c8" stroke-width="3"/>
  <text x="490" y="250" fill="#274b44" font-family="monospace" font-size="25" font-weight="700">Tonight</text>
  <rect x="490" y="278" width="204" height="14" rx="7" fill="#386f64"/>
  <rect x="490" y="309" width="156" height="14" rx="7" fill="#8bb7aa"/>
  <rect x="788" y="204" width="276" height="148" rx="12" fill="#fffaf0" stroke="#d9c793" stroke-width="3"/>
  <text x="816" y="250" fill="#564822" font-family="monospace" font-size="25" font-weight="700">Buy Next</text>
  <rect x="816" y="278" width="172" height="14" rx="7" fill="#b58e36"/>
  <rect x="816" y="309" width="118" height="14" rx="7" fill="#d4ba70"/>
  <rect x="136" y="398" width="928" height="118" rx="12" fill="#f7faf8" stroke="#d7e4df" stroke-width="3"/>
  <rect x="164" y="430" width="650" height="16" rx="8" fill="#8bb7aa"/>
  <rect x="164" y="468" width="490" height="16" rx="8" fill="#c5d8d0"/>
  <circle cx="978" cy="457" r="38" fill="#386f64"/>
  <path d="M960 459l13 13 28-34" fill="none" stroke="#fff" stroke-width="9" stroke-linecap="round" stroke-linejoin="round"/>
</svg>
