<svg xmlns="http://www.w3.org/2000/svg" viewBox="0 0 1200 675" role="img" aria-labelledby="title desc">
  <title id="title">Harbor Watch preview</title>
  <desc id="desc">A marina operations digest with tide, wind, and maintenance panels.</desc>
  <rect width="1200" height="675" fill="#edf5fa"/>
  <rect x="86" y="78" width="1028" height="520" rx="18" fill="#ffffff" stroke="#c1d6e3" stroke-width="3"/>
  <text x="132" y="132" fill="#275b7d" font-family="monospace" font-size="36" font-weight="700">Harbor Watch</text>
  <rect x="132" y="180" width="292" height="154" rx="14" fill="#e8f2f8" stroke="#b9d4e4" stroke-width="3"/>
  <text x="166" y="232" fill="#2f6f98" font-family="monospace" font-size="25" font-weight="700">Tide</text>
  <path d="M166 286c35-38 70 38 105 0s70 38 105 0" fill="none" stroke="#2f6f98" stroke-width="10" stroke-linecap="round"/>
  <rect x="454" y="180" width="292" height="154" rx="14" fill="#f8fbfd" stroke="#b9d4e4" stroke-width="3"/>
  <text x="488" y="232" fill="#2f6f98" font-family="monospace" font-size="25" font-weight="700">Wind</text>
  <path d="M488 286h174m-76-38h112m-132 76h146" stroke="#2f6f98" stroke-width="11" stroke-linecap="round"/>
  <rect x="776" y="180" width="292" height="154" rx="14" fill="#f6faf7" stroke="#b9d4e4" stroke-width="3"/>
  <text x="810" y="232" fill="#2f6f98" font-family="monospace" font-size="25" font-weight="700">Checks</text>
  <path d="M812 282l28 28 66-78" fill="none" stroke="#4f8f5a" stroke-width="12" stroke-linecap="round" stroke-linejoin="round"/>
  <rect x="132" y="388" width="936" height="112" rx="14" fill="#f7fbfd" stroke="#c1d6e3" stroke-width="3"/>
  <rect x="166" y="428" width="660" height="14" rx="7" fill="#79a9c6"/>
  <rect x="166" y="466" width="470" height="14" rx="7" fill="#c1d6e3"/>
</svg>
