<svg xmlns="http://www.w3.org/2000/svg" viewBox="0 0 1200 675" role="img" aria-labelledby="title desc">
  <title id="title">Canopy Notes preview</title>
  <desc id="desc">A field notebook interface with tree observations and a simple map.</desc>
  <rect width="1200" height="675" fill="#eef7ee"/>
  <rect x="84" y="72" width="1032" height="532" rx="18" fill="#ffffff" stroke="#c8ddc9" stroke-width="3"/>
  <text x="132" y="132" fill="#2f6532" font-family="monospace" font-size="36" font-weight="700">Canopy Notes</text>
  <rect x="132" y="178" width="430" height="360" rx="14" fill="#f7fbf7" stroke="#c8ddc9" stroke-width="3"/>
  <text x="166" y="230" fill="#3f7d42" font-family="monospace" font-size="24" font-weight="700">Observation</text>
  <rect x="166" y="264" width="324" height="14" rx="7" fill="#3f7d42"/>
  <rect x="166" y="302" width="260" height="14" rx="7" fill="#91bd94"/>
  <rect x="166" y="340" width="300" height="14" rx="7" fill="#c8ddc9"/>
  <rect x="166" y="406" width="152" height="38" rx="19" fill="#e3f0e4" stroke="#91bd94" stroke-width="3"/>
  <text x="192" y="433" fill="#2f6532" font-family="monospace" font-size="18">Healthy</text>
  <rect x="610" y="178" width="458" height="360" rx="14" fill="#e9f2ec" stroke="#c8ddc9" stroke-width="3"/>
  <path d="M660 470c82-78 132-218 256-250 58-15 112 12 126 74" fill="none" stroke="#8eb493" stroke-width="14" stroke-linecap="round"/>
  <circle cx="728" cy="418" r="22" fill="#3f7d42"/>
  <circle cx="910" cy="266" r="22" fill="#3f7d42"/>
  <circle cx="1010" cy="338" r="22" fill="#3f7d42"/>
  <rect x="650" y="206" width="96" height="12" rx="6" fill="#91bd94"/>
  <rect x="650" y="232" width="144" height="12" rx="6" fill="#c8ddc9"/>
</svg>
