<svg xmlns="http://www.w3.org/2000/svg" viewBox="0 0 1200 675" role="img" aria-labelledby="title desc">
  <title id="title">Stitch Log preview</title>
  <desc id="desc">A repair journal with fabric swatches and repair notes.</desc>
  <rect width="1200" height="675" fill="#fbf0f4"/>
  <rect x="92" y="78" width="1016" height="518" rx="18" fill="#fff" stroke="#e1c4d0" stroke-width="3"/>
  <text x="136" y="132" fill="#844c64" font-family="monospace" font-size="36" font-weight="700">Stitch Log</text>
  <rect x="136" y="184" width="400" height="328" rx="14" fill="#fff8fa" stroke="#e1c4d0" stroke-width="3"/>
  <path d="M178 252c52 44 104-44 156 0s104-44 156 0" fill="none" stroke="#b45f82" stroke-width="10" stroke-linecap="round"/>
  <path d="M178 322c52 44 104-44 156 0s104-44 156 0" fill="none" stroke="#d596ad" stroke-width="10" stroke-linecap="round"/>
  <path d="M178 392c52 44 104-44 156 0s104-44 156 0" fill="none" stroke="#b45f82" stroke-width="10" stroke-linecap="round"/>
  <rect x="612" y="184" width="456" height="84" rx="12" fill="#fff8fa" stroke="#e1c4d0" stroke-width="3"/>
  <rect x="612" y="306" width="456" height="84" rx="12" fill="#fff8fa" stroke="#e1c4d0" stroke-width="3"/>
  <rect x="612" y="428" width="456" height="84" rx="12" fill="#fff8fa" stroke="#e1c4d0" stroke-width="3"/>
  <rect x="646" y="216" width="230" height="14" rx="7" fill="#b45f82"/>
  <rect x="646" y="338" width="280" height="14" rx="7" fill="#b45f82"/>
  <rect x="646" y="460" width="200" height="14" rx="7" fill="#b45f82"/>
</svg>
