<svg xmlns="http://www.w3.org/2000/svg" viewBox="0 0 1200 675" role="img" aria-labelledby="title desc">
  <title id="title">Lumen Ledger preview</title>
  <desc id="desc">A household energy journal with meter readings, monthly bars, and notes.</desc>
  <rect width="1200" height="675" fill="#fbf1ea"/>
  <rect x="88" y="78" width="1024" height="520" rx="18" fill="#ffffff" stroke="#dfc8b8" stroke-width="3"/>
  <text x="132" y="132" fill="#79472d" font-family="monospace" font-size="36" font-weight="700">Lumen Ledger</text>
  <rect x="132" y="178" width="432" height="360" rx="14" fill="#fff8f3" stroke="#dfc8b8" stroke-width="3"/>
  <text x="166" y="230" fill="#a8623d" font-family="monospace" font-size="24" font-weight="700">Monthly use</text>
  <rect x="180" y="430" width="42" height="58" rx="5" fill="#d9a17f"/>
  <rect x="252" y="384" width="42" height="104" rx="5" fill="#a8623d"/>
  <rect x="324" y="342" width="42" height="146" rx="5" fill="#d9a17f"/>
  <rect x="396" y="306" width="42" height="182" rx="5" fill="#a8623d"/>
  <rect x="468" y="364" width="42" height="124" rx="5" fill="#d9a17f"/>
  <rect x="612" y="178" width="456" height="160" rx="14" fill="#fff8f3" stroke="#dfc8b8" stroke-width="3"/>
  <text x="646" y="230" fill="#a8623d" font-family="monospace" font-size="24" font-weight="700">Notes</text>
  <rect x="646" y="266" width="314" height="14" rx="7" fill="#a8623d"/>
  <rect x="646" y="300" width="240" height="14" rx="7" fill="#d9a17f"/>
  <rect x="612" y="378" width="456" height="160" rx="14" fill="#fff8f3" stroke="#dfc8b8" stroke-width="3"/>
  <text x="646" y="430" fill="#a8623d" font-family="monospace" font-size="24" font-weight="700">Reading</text>
  <rect x="646" y="466" width="180" height="18" rx="9" fill="#a8623d"/>
  <rect x="646" y="502" width="286" height="14" rx="7" fill="#d9a17f"/>
</svg>
